<?xml version="1.0" encoding="utf-8"?>
<!-- Generator: Adobe Illustrator 25.2.3, SVG Export Plug-In . SVG Version: 6.00 Build 0)  -->
<svg version="1.1" id="Layer_1" xmlns="http://www.w3.org/2000/svg" xmlns:xlink="http://www.w3.org/1999/xlink" x="0px" y="0px"
	 viewBox="0 0 64 64" style="enable-background:new 0 0 64 64;" xml:space="preserve">
<style type="text/css">
	.st0{fill:#E9C46A;}
</style>
<g>
	<path class="st0" d="M0.5,32c0-17.6,15.6-30,34.6-30C39.9,2,45.2,3.1,47.9,4l6.4-1.8l1.3,23.4H55c-1-9.7-6.6-22.9-19.9-22.9
		C21.5,2.7,19.6,19.9,19.6,32c0,12.1,1.9,29.3,15.1,29.3c2.5,0,4.4-0.3,5.9-0.8v-12c0-10.1,0-14.1-8.2-14.1v-0.7h31v0.7
		c-5.7,0-6.4,3.1-6.4,10.6v16.8L48.9,60c-3.5,0.8-9.7,1.9-14.1,1.9C16.1,62,0.5,49.6,0.5,32z"/>
</g>
</svg>
